<svg viewBox="0 0 125.068 37.7137" xmlns="http://www.w3.org/2000/svg" xmlns:xlink="http://www.w3.org/1999/xlink" width="125.068359" height="37.713745" fill="none" customFrame="#000000">
	<g id="Group">
		<path id="Vector" d="M29.0498 0.0739302C29.1509 -0.0248062 29.3131 -0.0248062 29.4165 0.0739302C29.9548 0.58877 42.5673 12.8062 42.5673 22.9008C42.5673 31.2088 36.7136 37.7137 29.2402 37.7137C21.7574 37.7137 15.9014 31.2088 15.9014 22.9008C15.899 12.8062 28.5138 0.58877 29.0498 0.0739302Z" fill="rgb(0,144,215)" fill-rule="nonzero" />
		<path id="Vector" d="M13.3318 37.6925C5.85366 37.6925 0 31.1642 0 22.8303C0 20.6064 0.665295 18.0628 1.97943 15.27C2.0241 15.1736 2.12048 15.1148 2.22392 15.1148C2.23332 15.1148 2.24273 15.1148 2.25448 15.1172C2.36967 15.1313 2.46371 15.2159 2.48722 15.3287C2.90802 17.3223 5.29885 20.8815 7.80958 21.3799C4.63121 16.8968 4.84749 10.3331 5.99001 8.80272C6.04173 8.73455 6.12401 8.69458 6.20864 8.69458C6.22039 8.69458 6.23215 8.69458 6.2439 8.69693C6.34264 8.71104 6.42492 8.77686 6.45783 8.8709C7.48281 11.6684 9.36821 13.5491 11.1478 13.5491C11.8836 13.5491 12.5395 13.2035 13.0426 12.55C14.5683 10.5659 14.5801 6.16035 13.0732 0.459496C13.0426 0.341953 13.0943 0.217357 13.2001 0.156235C13.2424 0.132726 13.2871 0.120972 13.3318 0.120972C13.4023 0.120972 13.4728 0.149182 13.5245 0.200901C15.0573 1.75953 18.318 5.23646 21.2072 9.39749C18.3885 13.5092 15.8989 18.4154 15.8989 22.9009C15.8989 27.8612 17.9888 32.1797 21.2636 34.855C19.0608 36.644 16.3268 37.6925 13.3318 37.6925Z" fill="rgb(231,64,17)" fill-rule="nonzero" />
		<path id="Vector" d="M21.2631 34.8551C17.986 32.1798 15.8984 27.8636 15.8984 22.901C15.8984 18.4155 18.3904 13.5092 21.2043 9.39758C24.1241 13.6033 26.6654 18.5048 26.6654 22.8304C26.6654 27.826 24.559 32.1728 21.2631 34.8551Z" fill="rgb(44,61,50)" fill-rule="nonzero" />
		<path id="Vector" d="M51.3407 15.0913C51.3407 14.0405 51.0915 13.7231 49.9208 12.6723C48.569 11.4545 48.2188 10.935 48.2188 9.39989L48.2188 8.63116C48.2188 6.94558 48.6208 6.4613 50.1723 6.4613L50.8564 6.4613C52.408 6.4613 52.81 6.94558 52.81 8.63116L52.81 10.4507L51.4253 10.4507L51.4253 8.86624C51.4253 8.08105 51.376 7.83186 50.6754 7.83186L50.4262 7.83186C49.7421 7.83186 49.6739 8.0834 49.6739 8.83333L49.6739 9.38343C49.6739 10.4343 49.9255 10.7681 51.0939 11.8213C52.4456 13.039 52.8123 13.5398 52.8123 15.0749L52.8123 16.1445C52.8123 17.8301 52.3962 18.3144 50.8588 18.3144L50.1582 18.3144C48.6231 18.3144 48.2211 17.8301 48.2211 16.1445L48.2211 13.9911L49.5893 13.9911L49.5893 15.9118C49.5893 16.697 49.6387 16.9462 50.3392 16.9462L50.5908 16.9462C51.2749 16.9462 51.3407 16.6946 51.3407 15.9118L51.3407 15.0913Z" fill="rgb(0,144,215)" fill-rule="nonzero" />
		<path id="Vector" d="M55.6639 18.2298L55.6639 7.91423L54.3779 7.91423L54.3779 6.54602L58.4003 6.54602L58.4003 7.91423L57.1331 7.91423L57.1331 18.2298L55.6639 18.2298Z" fill="rgb(0,144,215)" fill-rule="nonzero" />
		<path id="Vector" d="M61.5386 6.54602L60.0693 6.54602L60.0693 18.2298L61.5386 18.2298L61.5386 6.54602Z" fill="rgb(0,144,215)" fill-rule="nonzero" />
		<path id="Vector" d="M65.2363 15.9094C65.2363 16.6946 65.3021 16.9438 65.9862 16.9438L66.3365 16.9438C67.0206 16.9438 67.0888 16.6946 67.0888 15.9094L67.0888 13.4551L68.4734 13.4551L68.4734 16.1422C68.4734 17.8277 68.0714 18.312 66.5199 18.312L65.7182 18.312C64.1831 18.312 63.7646 17.8277 63.7646 16.1422L63.7646 8.63116C63.7646 6.94558 64.1807 6.4613 65.7182 6.4613L66.5199 6.4613C68.0714 6.4613 68.4734 6.94558 68.4734 8.63116L68.4734 10.8175L67.0888 10.8175L67.0888 8.86389C67.0888 8.0787 67.0206 7.82951 66.3365 7.82951L65.9862 7.82951C65.3021 7.82951 65.2363 8.0787 65.2363 8.86389L65.2363 15.9094Z" fill="rgb(0,144,215)" fill-rule="nonzero" />
		<path id="Vector" d="M70.7002 18.2298L70.7002 6.54602L72.1671 6.54602L72.1671 11.4358L74.0196 11.4358L74.0196 6.54602L75.4889 6.54602L75.4889 18.2298L74.0196 18.2298L74.0196 12.804L72.1671 12.804L72.1671 18.2298L70.7002 18.2298Z" fill="rgb(0,144,215)" fill-rule="nonzero" />
		<path id="Vector" d="M78.7889 18.2298L78.7889 7.91423L77.5029 7.91423L77.5029 6.54602L81.5253 6.54602L81.5253 7.91423L80.2581 7.91423L80.2581 18.2298L78.7889 18.2298Z" fill="rgb(0,144,215)" fill-rule="nonzero" />
		<path id="Vector" d="M85.0005 6.54602L83.5312 6.54602L83.5312 18.2298L85.0005 18.2298L85.0005 6.54602Z" fill="rgb(0,144,215)" fill-rule="nonzero" />
		<path id="Vector" d="M88.8748 11.4687C88.7079 10.7353 88.6091 10.0512 88.508 9.36706C88.5245 10.0512 88.541 10.7353 88.541 11.504L88.541 18.2298L87.2715 18.2298L87.2715 6.54602L89.124 6.54602L90.5086 12.7876C90.6755 13.521 90.7931 14.2075 90.8918 14.8916C90.8754 14.2075 90.8236 13.5234 90.8236 12.7711L90.8236 6.54602L92.1096 6.54602L92.1096 18.2298L90.4405 18.2298L88.8748 11.4687Z" fill="rgb(0,144,215)" fill-rule="nonzero" />
		<path id="Vector" d="M96.7545 11.7531L99.0584 11.7531L99.0584 16.1422C99.0584 17.8277 98.6588 18.312 97.1048 18.312L96.3032 18.312C94.7681 18.312 94.3496 17.8277 94.3496 16.1422L94.3496 8.63116C94.3496 6.94558 94.7681 6.4613 96.3032 6.4613L97.1048 6.4613C98.6564 6.4613 99.0584 6.94558 99.0584 8.63116L99.0584 10.6176L97.6737 10.6176L97.6737 8.86389C97.6737 8.0787 97.6079 7.82951 96.9215 7.82951L96.5712 7.82951C95.8871 7.82951 95.8189 8.0787 95.8189 8.86389L95.8189 15.9071C95.8189 16.6923 95.8871 16.9415 96.5712 16.9415L96.9215 16.9415C97.6056 16.9415 97.6737 16.6923 97.6737 15.9071L97.6737 13.1213L96.7569 13.1213L96.7569 11.7531L96.7545 11.7531Z" fill="rgb(0,144,215)" fill-rule="nonzero" />
		<path id="Vector" d="M48.3857 21.8265L51.2232 21.8265C52.7748 21.8265 53.1768 22.3108 53.1768 23.9964L53.1768 25.3317C53.1768 26.5659 52.9605 27.1513 52.2412 27.3675C52.9582 27.6003 53.1768 28.1692 53.1768 29.3869L53.1768 31.3405C53.1768 33.0261 52.7748 33.5103 51.2232 33.5103L48.3857 33.5103L48.3857 21.8265ZM51.7075 24.2291C51.7075 23.4439 51.6581 23.1947 50.9576 23.1947L49.855 23.1947L49.855 26.6834L50.9576 26.6834C51.6417 26.6834 51.7075 26.4342 51.7075 25.649L51.7075 24.2291ZM49.855 28.0516L49.855 32.1398L50.9576 32.1398C51.6581 32.1398 51.7075 31.8906 51.7075 31.1054L51.7075 29.086C51.7075 28.3008 51.6417 28.0516 50.9576 28.0516L49.855 28.0516Z" fill="rgb(231,64,17)" fill-rule="nonzero" />
		<path id="Vector" d="M60.1706 31.4558C60.1706 32.2058 60.2364 32.9251 60.4221 33.5081L58.887 33.5081C58.7201 33.125 58.7036 32.4221 58.7036 31.6886L58.7036 29.4529C58.7036 28.6513 58.5696 28.2845 57.8361 28.2845L56.8511 28.2845L56.8511 33.5081L55.3818 33.5081L55.3818 21.8243L58.2193 21.8243C59.7709 21.8243 60.1729 22.3086 60.1729 23.9942L60.1729 25.581C60.1729 26.7988 59.9566 27.3841 59.2373 27.6004C59.9543 27.8332 60.1729 28.4185 60.1729 29.6527L60.1729 31.4558L60.1706 31.4558ZM58.7013 24.2293C58.7013 23.4441 58.6519 23.1949 57.9513 23.1949L56.8488 23.1949L56.8488 26.9163L57.9513 26.9163C58.6354 26.9163 58.7013 26.6648 58.7013 25.8819L58.7013 24.2293Z" fill="rgb(231,64,17)" fill-rule="nonzero" />
		<path id="Vector" d="M65.7845 31.7237L63.8991 31.7237L63.6499 33.5103L62.3311 33.5103L63.9179 21.8265L65.9373 21.8265L67.5053 33.5103L66.036 33.5103L65.7845 31.7237ZM64.0825 30.3555L65.6011 30.3555L65.4177 28.9379C65.1168 26.6011 64.9499 24.6147 64.8324 23.0466C64.7148 24.6147 64.5667 26.6011 64.2658 28.9379L64.0825 30.3555Z" fill="rgb(231,64,17)" fill-rule="nonzero" />
		<path id="Vector" d="M71.1726 26.7494C71.0057 26.0159 70.9046 25.3318 70.8059 24.6454C70.8223 25.3295 70.8388 26.0136 70.8388 26.7823L70.8388 33.5081L69.5693 33.5081L69.5693 21.8243L71.4218 21.8243L72.8065 28.0659C72.9734 28.7994 73.0909 29.4858 73.1897 30.1699C73.1732 29.4858 73.1238 28.8017 73.1238 28.0494L73.1238 21.8267L74.4098 21.8267L74.4098 33.5105L72.743 33.5105L71.1726 26.7494Z" fill="rgb(231,64,17)" fill-rule="nonzero" />
		<path id="Vector" d="M76.6943 21.8265L79.5154 21.8265C81.0669 21.8265 81.4854 22.3108 81.4854 23.9964L81.4854 31.3405C81.4854 33.0261 81.0669 33.5103 79.5154 33.5103L76.6943 33.5103L76.6943 21.8265ZM79.2662 32.1398C79.9503 32.1398 80.0185 31.8906 80.0185 31.1054L80.0185 24.2291C80.0185 23.4439 79.9526 23.1947 79.2662 23.1947L78.1636 23.1947L78.1636 32.1421L79.2662 32.1421L79.2662 32.1398Z" fill="rgb(231,64,17)" fill-rule="nonzero" />
		<path id="Vector" d="M86.7446 33.5103L84.8428 33.5103L83.4229 21.8265L84.9086 21.8265L85.5269 27.3675C85.6938 28.8204 85.8442 30.1721 85.8772 31.1407C85.9101 30.1721 86.0276 28.8204 86.1945 27.3675L86.794 21.8265L88.2962 21.8265L88.898 27.3675C89.0649 28.8204 89.1825 30.1721 89.2154 31.1407C89.2483 30.1721 89.3988 28.8204 89.5657 27.3675L90.1839 21.8265L91.5028 21.8265L90.0829 33.5103L88.2797 33.5103L87.6944 28.2185C87.5768 27.2335 87.5439 26.1992 87.511 25.1319C87.4616 26.1992 87.4099 27.2359 87.3112 28.2185L86.7446 33.5103Z" fill="rgb(231,64,17)" fill-rule="nonzero" />
		<path id="Vector" d="M93.2539 23.9119C93.2539 22.2263 93.67 21.7421 95.2075 21.7421L96.0914 21.7421C97.6265 21.7421 98.045 22.2263 98.045 23.9119L98.045 31.4229C98.045 33.1085 97.6265 33.5928 96.0914 33.5928L95.2075 33.5928C93.6724 33.5928 93.2539 33.1085 93.2539 31.4229L93.2539 23.9119ZM96.5757 24.147C96.5757 23.3618 96.5075 23.1126 95.8234 23.1126L95.4731 23.1126C94.789 23.1126 94.7232 23.3618 94.7232 24.147L94.7232 31.1902C94.7232 31.9754 94.789 32.2246 95.4731 32.2246L95.8234 32.2246C96.5075 32.2246 96.5757 31.973 96.5757 31.1902L96.5757 24.147Z" fill="rgb(231,64,17)" fill-rule="nonzero" />
		<path id="Vector" d="M101.888 26.7494C101.722 26.0159 101.62 25.3318 101.522 24.6454C101.538 25.3295 101.555 26.0136 101.555 26.7823L101.555 33.5081L100.285 33.5081L100.285 21.8243L102.138 21.8243L103.522 28.0659C103.689 28.7994 103.807 29.4858 103.905 30.1699C103.889 29.4858 103.84 28.8017 103.84 28.0494L103.84 21.8267L105.126 21.8267L105.126 33.5105L103.456 33.5105L101.888 26.7494Z" fill="rgb(231,64,17)" fill-rule="nonzero" />
		<path id="Vector" d="M107.411 21.8265L110.232 21.8265C111.784 21.8265 112.202 22.3108 112.202 23.9964L112.202 31.3405C112.202 33.0261 111.784 33.5103 110.232 33.5103L107.411 33.5103L107.411 21.8265ZM109.981 32.1398C110.665 32.1398 110.733 31.8906 110.733 31.1054L110.733 24.2291C110.733 23.4439 110.667 23.1947 109.981 23.1947L108.878 23.1947L108.878 32.1421L109.981 32.1421L109.981 32.1398Z" fill="rgb(231,64,17)" fill-rule="nonzero" />
		<path id="Vector" d="M115.917 26.7163L117.736 26.7163L117.736 28.0845L115.917 28.0845L115.917 32.1398L118.103 32.1398L118.103 33.5103L114.447 33.5103L114.447 21.8265L118.103 21.8265L118.103 23.1947L115.917 23.1947L115.917 26.7163Z" fill="rgb(231,64,17)" fill-rule="nonzero" />
		<path id="Vector" d="M121.831 26.7494C121.664 26.0159 121.563 25.3318 121.464 24.6454C121.481 25.3295 121.497 26.0136 121.497 26.7823L121.497 33.5081L120.228 33.5081L120.228 21.8243L122.08 21.8243L123.465 28.0659C123.632 28.7994 123.749 29.4858 123.848 30.1699C123.831 29.4858 123.782 28.8017 123.782 28.0494L123.782 21.8267L125.068 21.8267L125.068 33.5105L123.399 33.5105L121.831 26.7494Z" fill="rgb(231,64,17)" fill-rule="nonzero" />
	</g>
</svg>
