<svg viewBox="0 0 20 20" xmlns="http://www.w3.org/2000/svg" xmlns:xlink="http://www.w3.org/1999/xlink" width="20.000000" height="20.000000" fill="none">
	<rect id="State Dropdown Icon" width="20.000000" height="20.000000" x="0.000000" y="0.000000" transform="matrix(1.52656e-16,-1,1,1.52656e-16,0,20)" />
	<path id="Icon" d="M0.353553 -0.353553C0.158291 -0.548816 -0.158291 -0.548816 -0.353553 -0.353553C-0.548816 -0.158291 -0.548816 0.158291 -0.353553 0.353553L0 0L0.353553 -0.353553ZM5 5L4.64645 5.35355C4.84171 5.54882 5.15829 5.54882 5.35355 5.35355L5 5ZM10.3536 0.353553C10.5488 0.158291 10.5488 -0.158291 10.3536 -0.353553C10.1583 -0.548816 9.84171 -0.548816 9.64645 -0.353553L10 0L10.3536 0.353553ZM0 0L-0.353553 0.353553L4.64645 5.35355L5 5L5.35355 4.64645L0.353553 -0.353553L0 0ZM5 5L5.35355 5.35355L10.3536 0.353553L10 0L9.64645 -0.353553L4.64645 4.64645L5 5Z" fill-rule="nonzero" stroke="rgb(0,144,215)" stroke-linecap="round" stroke-linejoin="round" stroke-width="1" transform="matrix(1.52656e-16,-1,1,1.52656e-16,7.5,15)" />
</svg>
