<svg viewBox="0 0 20 20" xmlns="http://www.w3.org/2000/svg" xmlns:xlink="http://www.w3.org/1999/xlink" width="20.000000" height="20.000000" fill="none" customFrame="#000000">
	<rect id="Type=calendar, Size=20x20" width="20.000000" height="20.000000" x="0.000000" y="0.000000" />
	<path id="Vector" d="M9.1665 11.6665L13.3332 11.6665M6.6665 11.6665L6.67399 11.6665M10.8332 14.9998L6.6665 14.9998M13.3332 14.9998L13.3257 14.9998" fill-rule="nonzero" stroke="rgb(36,36,36)" stroke-linecap="round" stroke-linejoin="round" stroke-width="1" />
	<path id="Vector" d="M13.75 1.6665L13.75 4.99984M6.25 1.6665L6.25 4.99984" fill-rule="nonzero" stroke="rgb(36,36,36)" stroke-linecap="round" stroke-linejoin="round" stroke-width="1" />
	<path id="Vector" d="M4.16667 3.3335C3.24619 3.3335 2.5 4.07969 2.5 5.00016L2.5 16.6668C2.5 17.5873 3.24619 18.3335 4.16667 18.3335L15.8333 18.3335C16.7538 18.3335 17.5 17.5873 17.5 16.6668L17.5 5.00016C17.5 4.07969 16.7538 3.3335 15.8333 3.3335L4.16667 3.3335Z" fill-rule="nonzero" stroke="rgb(36,36,36)" stroke-linecap="round" stroke-linejoin="round" stroke-width="1" />
	<path id="Vector" d="M2.5 8.3335L17.5 8.3335" stroke="rgb(36,36,36)" stroke-linecap="round" stroke-linejoin="round" stroke-width="1" />
</svg>
