<svg viewBox="0 0 48 48" xmlns="http://www.w3.org/2000/svg" xmlns:xlink="http://www.w3.org/1999/xlink" width="48.000000" height="48.000000" fill="none" customFrame="#000000">
	<rect id="Type=call-ringing, Size=48x48" width="48.000000" height="48.000000" x="0.000000" y="0.000000" />
	<path id="Vector" d="M26.9784 38.046L32.9678 32.0568C33.5774 31.4472 34.5088 31.294 35.3112 31.6092C36.4276 32.0476 38.1388 32.621 40.004 32.8888C41.099 33.046 42 33.9356 42 35.0418L42 40.049C42 41.155 41.1018 42.0576 39.9972 41.9972C21.6808 40.9942 7.00577 26.3192 6.00287 8.00278C5.94239 6.89828 6.84489 6 7.95105 6L12.9583 6C14.0644 6 14.9539 6.90102 15.1112 7.99594C15.379 9.86122 15.9524 11.5723 16.3909 12.6887C16.706 13.4911 16.5528 14.4227 15.9432 15.0323L9.95393 21.0216" fill-rule="nonzero" stroke="rgb(36,36,36)" stroke-linecap="round" stroke-linejoin="round" stroke-width="1.5" />
	<path id="Vector" d="M35 22.004L40 22M26 13.0039L26 8M35.8994 12.1005L32.362 15.638" fill-rule="nonzero" stroke="rgb(36,36,36)" stroke-linecap="round" stroke-linejoin="round" stroke-width="1.5" />
</svg>
