<svg viewBox="0 0 48 48" xmlns="http://www.w3.org/2000/svg" xmlns:xlink="http://www.w3.org/1999/xlink" width="48.000000" height="48.000000" fill="none" customFrame="#000000">
	<rect id="Type=coins, Size=48x48" width="48.000000" height="48.000000" x="0.000000" y="0.000000" />
	<path id="Vector" d="M43 23C43 20.7908 37.6274 19 31 19C24.3726 19 19 20.7908 19 23C19 25.2092 24.3726 27 31 27C37.6274 27 43 25.2092 43 23Z" fill-rule="nonzero" stroke="rgb(36,36,36)" stroke-width="1.5" />
	<path id="Vector" d="M29 9C29 6.79086 23.6274 5 17 5C10.3726 5 5 6.79086 5 9C5 11.2091 10.3726 13 17 13C23.6274 13 29 11.2091 29 9Z" fill-rule="nonzero" stroke="rgb(36,36,36)" stroke-width="1.5" />
	<path id="Vector" d="M5 17C5 18.8467 8.33924 20.4178 13 21" fill-rule="nonzero" stroke="rgb(36,36,36)" stroke-linecap="round" stroke-width="1.5" />
	<path id="Vector" d="M5 25C5 26.8468 8.33924 28.4178 13 29" fill-rule="nonzero" stroke="rgb(36,36,36)" stroke-linecap="round" stroke-width="1.5" />
	<path id="Vector" d="M5 9L5 33C5 34.7416 8.33924 36.4508 13 37" fill-rule="nonzero" stroke="rgb(36,36,36)" stroke-linecap="round" stroke-width="1.5" />
	<path id="Vector" d="M43 23L43 39C43 41.2092 37.6274 43 31 43C24.3726 43 19 41.2092 19 39L19 23" fill-rule="nonzero" stroke="rgb(36,36,36)" stroke-width="1.5" />
	<path id="Vector" d="M43 31C43 33.2092 37.6276 35 31 35C24.3724 35 19 33.2092 19 31" fill-rule="nonzero" stroke="rgb(36,36,36)" stroke-linecap="round" stroke-width="1.5" />
</svg>
