<svg viewBox="0 0 24 24" xmlns="http://www.w3.org/2000/svg" xmlns:xlink="http://www.w3.org/1999/xlink" width="24.000000" height="24.000000" fill="none">
	<rect id="Facebook Fill" width="24.000000" height="24.000000" x="0.000000" y="0.000000" />
	<path id="path14" d="M20 9.87852C20 15.4014 15.5229 19.8785 10 19.8785C4.47715 19.8785 0 15.4014 0 9.87852C0 4.88723 3.65686 0.750199 8.4375 0L8.4375 6.98789L5.89844 6.98789L5.89844 9.87852L8.4375 9.87852L8.4375 12.0816C8.4375 14.5879 9.93043 15.9723 12.2146 15.9723C13.3087 15.9723 14.4531 15.777 14.4531 15.777L14.4531 13.316L13.1921 13.316C11.9499 13.316 11.5625 12.5452 11.5625 11.7544L11.5625 9.87852L14.3359 9.87852L13.8926 6.98789L11.5625 6.98789L11.5625 0C16.3431 0.750199 20 4.88723 20 9.87852Z" fill="rgb(36,36,36)" fill-rule="nonzero" transform="matrix(1,0,0,-1,2,21.8784)" />
</svg>
