<svg viewBox="0 0 48 48" xmlns="http://www.w3.org/2000/svg" xmlns:xlink="http://www.w3.org/1999/xlink" width="48.000000" height="48.000000" fill="none" customFrame="#000000">
	<rect id="Type=files, Size=48x48" width="48.000000" height="48.000000" x="0.000000" y="0.000000" />
	<path id="Vector" d="M17 38C14.7909 38 13 36.2092 13 34L13 8C13 5.79086 14.7909 4 17 4L31 4L41 14L41 34C41 36.2092 39.2092 38 37 38L17 38Z" fill-rule="nonzero" stroke="rgb(36,36,36)" stroke-linecap="round" stroke-linejoin="round" stroke-width="1.5" />
	<path id="Vector" d="M31 5L31 12C31 13.1046 31.8954 14 33 14L40 14" fill-rule="nonzero" stroke="rgb(36,36,36)" stroke-linecap="round" stroke-linejoin="round" stroke-width="1.5" />
	<path id="Vector" d="M12.999 10L10.999 10C8.7899 10 6.99902 11.7909 6.99902 14L6.99902 40C6.99902 42.2092 8.7899 44 10.999 44L30.9998 44C33.209 44 34.9998 42.2092 34.9998 40L34.9998 38" fill-rule="nonzero" stroke="rgb(36,36,36)" stroke-linecap="round" stroke-linejoin="round" stroke-width="1.5" />
	<path id="Vector" d="M20 22L28 22M20 30L34 30" fill-rule="nonzero" stroke="rgb(36,36,36)" stroke-linecap="round" stroke-linejoin="round" stroke-width="1.5" />
</svg>
