<svg viewBox="0 0 48 48" xmlns="http://www.w3.org/2000/svg" xmlns:xlink="http://www.w3.org/1999/xlink" width="48.000000" height="48.000000" fill="none" customFrame="#000000">
	<rect id="Type=healtcare, Size=48x48" width="48.000000" height="48.000000" x="0.000000" y="0.000000" />
	<path id="Vector" d="M25 5.95523C25 5.95523 21.8472 2.44869 17.4563 4.82743C12.3333 7.60283 11.7909 18.1745 23.5968 23.424C24.4876 23.8202 25.5126 23.8202 26.4032 23.424C38.2092 18.1745 37.6666 7.60285 32.5436 4.82745C28.1528 2.44871 25 5.95523 25 5.95523Z" fill-rule="nonzero" stroke="rgb(36,36,36)" stroke-linecap="round" stroke-linejoin="round" stroke-width="1.5" />
	<path id="Vector" d="M8 28L12.9725 28C13.6466 28 14.3097 28.1704 14.9003 28.4952L19 30.7502L21 30.7502C24 30.7502 26 33.048 26 34.9996L20.6324 36.7888C20.222 36.9256 19.7781 36.9256 19.3675 36.7888L14 34.9996M25.9986 34L34.4206 31.1926C36.4298 30.523 38.6128 31.5354 39.3994 33.5018C39.738 34.3486 39.3712 35.3138 38.5554 35.7216L23.385 43.3068C22.493 43.7528 21.4668 43.8496 20.5072 43.578L8 40.0398" fill-rule="nonzero" stroke="rgb(36,36,36)" stroke-linecap="round" stroke-linejoin="round" stroke-width="1.5" />
</svg>
