<svg viewBox="0 0 48 48" xmlns="http://www.w3.org/2000/svg" xmlns:xlink="http://www.w3.org/1999/xlink" width="48.000000" height="48.000000" fill="none" customFrame="#000000">
	<rect id="Type=task-done, Size=48x48" width="48.000000" height="48.000000" x="0.000000" y="0.000000" />
	<path id="Vector" d="M38 29.9962L38 11C38 8.79086 36.2092 7 34 7L30 7M24 43.9962L10 43.9962C7.79086 43.9962 6 42.2054 6 39.9962L6 11C6 8.79086 7.79086 7 10 7L14 7" fill-rule="nonzero" stroke="rgb(36,36,36)" stroke-linecap="round" stroke-linejoin="round" stroke-width="1.5" />
	<path id="Vector" d="M17 4C15.3431 4 14 5.34314 14 7C14 8.65686 15.3431 10 17 10L27 10C28.6568 10 30 8.65686 30 7C30 5.34314 28.6568 4 27 4L17 4Z" fill-rule="nonzero" stroke="rgb(36,36,36)" stroke-linecap="round" stroke-linejoin="round" stroke-width="1.5" />
	<path id="Vector" d="M14 30L20.8572 30M14 22L30 22" fill-rule="nonzero" stroke="rgb(36,36,36)" stroke-linecap="round" stroke-linejoin="round" stroke-width="1.5" />
	<path id="Vector" d="M42 34L32 44L28 40" fill-rule="nonzero" stroke="rgb(36,36,36)" stroke-linecap="round" stroke-linejoin="round" stroke-width="1.5" />
</svg>
