<svg viewBox="0 0 20 20" xmlns="http://www.w3.org/2000/svg" xmlns:xlink="http://www.w3.org/1999/xlink" width="20.000000" height="20.000000" fill="none" customFrame="#000000">
	<rect id="Type=user-group, Size=20x20" width="20.000000" height="20.000000" x="0.000000" y="0.000000" />
	<path id="Vector" d="M10.0002 6.25C8.38933 6.25 7.0835 7.55583 7.0835 9.16667C7.0835 10.7775 8.38933 12.0833 10.0002 12.0833C11.611 12.0833 12.9168 10.7775 12.9168 9.16667C12.9168 7.55583 11.611 6.25 10.0002 6.25Z" fill-rule="nonzero" stroke="rgb(36,36,36)" stroke-linecap="round" stroke-linejoin="round" stroke-width="1" />
	<path id="Vector" d="M12.9022 9.45825C13.1705 9.53958 13.4551 9.58333 13.7499 9.58333C15.3607 9.58333 16.6666 8.2775 16.6666 6.66667C16.6666 5.05583 15.3607 3.75 13.7499 3.75C12.2375 3.75 10.9939 4.90117 10.8477 6.37511" fill-rule="nonzero" stroke="rgb(36,36,36)" stroke-linecap="round" stroke-linejoin="round" stroke-width="1" />
	<path id="Vector" d="M9.15241 6.37511C9.00616 4.90117 7.7626 3.75 6.25016 3.75C4.63933 3.75 3.3335 5.05583 3.3335 6.66667C3.3335 8.2775 4.63933 9.58333 6.25016 9.58333C6.545 9.58333 6.82962 9.53958 7.09789 9.45825" fill-rule="nonzero" stroke="rgb(36,36,36)" stroke-linecap="round" stroke-linejoin="round" stroke-width="1" />
	<path id="Vector" d="M18.3333 13.7502C18.3333 11.449 16.2813 9.5835 13.75 9.5835" fill-rule="nonzero" stroke="rgb(36,36,36)" stroke-linecap="round" stroke-linejoin="round" stroke-width="1" />
	<path id="Vector" d="M14.5832 16.2502C14.5832 13.949 12.5312 12.0835 9.99984 12.0835C7.46853 12.0835 5.4165 13.949 5.4165 16.2502" fill-rule="nonzero" stroke="rgb(36,36,36)" stroke-linecap="round" stroke-linejoin="round" stroke-width="1" />
	<path id="Vector" d="M6.24984 9.5835C3.71853 9.5835 1.6665 11.449 1.6665 13.7502" fill-rule="nonzero" stroke="rgb(36,36,36)" stroke-linecap="round" stroke-linejoin="round" stroke-width="1" />
</svg>
